<svg width="16" height="16" viewBox="0 0 16 16" fill="none" xmlns="http://www.w3.org/2000/svg">
<path d="M12.4466 1.33325H11.18C9.72663 1.33325 8.95996 2.09992 8.95996 3.55325V4.81992C8.95996 6.27325 9.72663 7.03992 11.18 7.03992H12.4466C13.9 7.03992 14.6666 6.27325 14.6666 4.81992V3.55325C14.6666 2.09992 13.9 1.33325 12.4466 1.33325Z" fill="#14213D"/>
<path d="M4.82683 8.95337H3.56016C2.10016 8.95337 1.3335 9.72004 1.3335 11.1734V12.44C1.3335 13.9 2.10016 14.6667 3.5535 14.6667H4.82016C6.2735 14.6667 7.04016 13.9 7.04016 12.4467V11.18C7.04683 9.72004 6.28016 8.95337 4.82683 8.95337Z" fill="#14213D"/>
<path d="M4.1935 7.05325C5.77303 7.05325 7.0535 5.77279 7.0535 4.19325C7.0535 2.61372 5.77303 1.33325 4.1935 1.33325C2.61396 1.33325 1.3335 2.61372 1.3335 4.19325C1.3335 5.77279 2.61396 7.05325 4.1935 7.05325Z" fill="#14213D"/>
<path d="M11.8068 14.6665C13.3863 14.6665 14.6668 13.3861 14.6668 11.8065C14.6668 10.227 13.3863 8.94653 11.8068 8.94653C10.2272 8.94653 8.94678 10.227 8.94678 11.8065C8.94678 13.3861 10.2272 14.6665 11.8068 14.6665Z" fill="#14213D"/>
</svg>
