<svg width="16" height="16" viewBox="0 0 16 16" fill="none" xmlns="http://www.w3.org/2000/svg">
<path d="M14.6668 14.6667H1.3335C1.06016 14.6667 0.833496 14.4401 0.833496 14.1667C0.833496 13.8934 1.06016 13.6667 1.3335 13.6667H14.6668C14.9402 13.6667 15.1668 13.8934 15.1668 14.1667C15.1668 14.4401 14.9402 14.6667 14.6668 14.6667Z" fill="white"/>
<path d="M6.5 2.66659V14.6666H9.5V2.66659C9.5 1.93325 9.2 1.33325 8.3 1.33325H7.7C6.8 1.33325 6.5 1.93325 6.5 2.66659Z" fill="white"/>
<path d="M2 6.66659V14.6666H4.66667V6.66659C4.66667 5.93325 4.4 5.33325 3.6 5.33325H3.06667C2.26667 5.33325 2 5.93325 2 6.66659Z" fill="white"/>
<path d="M11.3335 10.0001V14.6667H14.0002V10.0001C14.0002 9.26675 13.7335 8.66675 12.9335 8.66675H12.4002C11.6002 8.66675 11.3335 9.26675 11.3335 10.0001Z" fill="white"/>
</svg>
