<svg width="16" height="16" viewBox="0 0 16 16" fill="none" xmlns="http://www.w3.org/2000/svg">
<path d="M5.1665 2.33325V1.33325C5.1665 1.05992 4.93984 0.833252 4.6665 0.833252C4.39317 0.833252 4.1665 1.05992 4.1665 1.33325V2.37325C4.33317 2.35325 4.4865 2.33325 4.6665 2.33325H5.1665Z" fill="#14213D"/>
<path d="M10.5 2.37325V1.33325C10.5 1.05992 10.2733 0.833252 10 0.833252C9.72667 0.833252 9.5 1.05992 9.5 1.33325V2.33325H10C10.18 2.33325 10.3333 2.35325 10.5 2.37325Z" fill="#14213D"/>
<path d="M14.1935 9.97992C13.6802 9.57325 13.0335 9.33325 12.3335 9.33325C11.6335 9.33325 10.9735 9.57992 10.4602 9.99325C9.76683 10.5399 9.3335 11.3933 9.3335 12.3333C9.3335 12.8933 9.4935 13.4333 9.76683 13.8733C9.98016 14.2199 10.2535 14.5266 10.5802 14.7599C11.0735 15.1199 11.6735 15.3333 12.3335 15.3333C13.0935 15.3333 13.7802 15.0533 14.3068 14.5866C14.5402 14.3933 14.7402 14.1533 14.9002 13.8799C15.1735 13.4333 15.3335 12.8933 15.3335 12.3333C15.3335 11.3799 14.8868 10.5266 14.1935 9.97992ZM12.3335 13.7599C12.3335 12.9733 11.6935 12.3333 10.9068 12.3333C11.6935 12.3333 12.3335 11.6933 12.3335 10.9066C12.3335 11.6933 12.9735 12.3333 13.7602 12.3333C12.9735 12.3333 12.3335 12.9733 12.3335 13.7599Z" fill="#14213D"/>
<path d="M10.5002 2.37325V3.33325C10.5002 3.60659 10.2735 3.83325 10.0002 3.83325C9.72683 3.83325 9.50016 3.60659 9.50016 3.33325V2.33325H5.16683V3.33325C5.16683 3.60659 4.94016 3.83325 4.66683 3.83325C4.3935 3.83325 4.16683 3.60659 4.16683 3.33325V2.37325C2.20016 2.55325 1.3335 3.81992 1.3335 5.66659V11.3333C1.3335 13.3333 2.3335 14.6666 4.66683 14.6666H7.42016C7.92683 14.6666 8.26683 14.0999 8.14016 13.6066C8.04683 13.2466 8.00016 12.8733 8.00016 12.4999C8.00016 11.1133 8.62016 9.83325 9.6935 8.98659C10.4735 8.35325 11.4735 7.99992 12.5002 7.99992H12.5268C12.9468 7.99992 13.3335 7.69325 13.3335 7.27325V5.66659C13.3335 3.81992 12.4668 2.55325 10.5002 2.37325ZM6.00016 11.1666H4.66683C4.3935 11.1666 4.16683 10.9399 4.16683 10.6666C4.16683 10.3933 4.3935 10.1666 4.66683 10.1666H6.00016C6.2735 10.1666 6.50016 10.3933 6.50016 10.6666C6.50016 10.9399 6.2735 11.1666 6.00016 11.1666ZM8.00016 7.83325H4.66683C4.3935 7.83325 4.16683 7.60659 4.16683 7.33325C4.16683 7.05992 4.3935 6.83325 4.66683 6.83325H8.00016C8.2735 6.83325 8.50016 7.05992 8.50016 7.33325C8.50016 7.60659 8.2735 7.83325 8.00016 7.83325Z" fill="#14213D"/>
</svg>
