<svg width="16" height="16" viewBox="0 0 16 16" fill="white" xmlns="http://www.w3.org/2000/svg">
<path d="M11.6867 5.17992C11.64 5.17325 11.5934 5.17325 11.5467 5.17992C10.5134 5.14659 9.69336 4.29992 9.69336 3.25992C9.69336 2.19992 10.5534 1.33325 11.62 1.33325C12.68 1.33325 13.5467 2.19325 13.5467 3.25992C13.54 4.29992 12.72 5.14659 11.6867 5.17992Z" fill="white"/>
<path d="M13.8597 9.80003C13.1131 10.3 12.0664 10.4867 11.0997 10.36C11.3531 9.81336 11.4864 9.20669 11.4931 8.56669C11.4931 7.90003 11.3464 7.26669 11.0664 6.71336C12.0531 6.58002 13.0997 6.76669 13.8531 7.26669C14.9064 7.96002 14.9064 9.10003 13.8597 9.80003Z" fill="white"/>
<path d="M4.29327 5.17992C4.33994 5.17325 4.38661 5.17325 4.43327 5.17992C5.46661 5.14659 6.28661 4.29992 6.28661 3.25992C6.28661 2.19325 5.42661 1.33325 4.35994 1.33325C3.29994 1.33325 2.43994 2.19325 2.43994 3.25992C2.43994 4.29992 3.25994 5.14659 4.29327 5.17992Z" fill="#white"/>
<path d="M4.36675 8.56657C4.36675 9.21324 4.50675 9.82657 4.76008 10.3799C3.82008 10.4799 2.84008 10.2799 2.12008 9.80657C1.06674 9.10657 1.06674 7.96657 2.12008 7.26657C2.83341 6.78657 3.84008 6.59324 4.78675 6.69991C4.51341 7.25991 4.36675 7.89324 4.36675 8.56657Z" fill="white"/>
<path d="M8.08019 10.58C8.02686 10.5733 7.96686 10.5733 7.90686 10.58C6.68019 10.54 5.7002 9.53333 5.7002 8.29333C5.70686 7.02667 6.72686 6 8.0002 6C9.26686 6 10.2935 7.02667 10.2935 8.29333C10.2869 9.53333 9.31353 10.54 8.08019 10.58Z" fill="white"/>
<path d="M5.9132 11.96C4.90654 12.6333 4.90654 13.74 5.9132 14.4067C7.05987 15.1733 8.93987 15.1733 10.0865 14.4067C11.0932 13.7333 11.0932 12.6267 10.0865 11.96C8.94654 11.1933 7.06654 11.1933 5.9132 11.96Z" fill="white"/>
</svg>
