<svg width="16" height="16" viewBox="0 0 16 16" fill="none" xmlns="http://www.w3.org/2000/svg">
<path d="M13.0068 3.89992L9.04678 1.61325C8.40011 1.23992 7.60011 1.23992 6.94678 1.61325L2.99344 3.89992C2.34678 4.27325 1.94678 4.96659 1.94678 5.71992V10.2799C1.94678 11.0266 2.34678 11.7199 2.99344 12.0999L6.95344 14.3866C7.60011 14.7599 8.40011 14.7599 9.05344 14.3866L13.0134 12.0999C13.6601 11.7266 14.0601 11.0333 14.0601 10.2799V5.71992C14.0534 4.96659 13.6534 4.27992 13.0068 3.89992ZM8.00011 4.89325C8.86011 4.89325 9.55344 5.58659 9.55344 6.44659C9.55344 7.30659 8.86011 7.99992 8.00011 7.99992C7.14011 7.99992 6.44678 7.30659 6.44678 6.44659C6.44678 5.59325 7.14011 4.89325 8.00011 4.89325ZM9.78678 11.1066H6.21344C5.67344 11.1066 5.36011 10.5066 5.66011 10.0599C6.11344 9.38659 6.99344 8.93325 8.00011 8.93325C9.00678 8.93325 9.88678 9.38659 10.3401 10.0599C10.6401 10.4999 10.3201 11.1066 9.78678 11.1066Z" fill="white"/>
</svg>
